# xmcd
#
# Track frame offsets:
#	150
#	11863
#	22932
#	34762
#	47103
#	58658
#	69807
#	80708
#	93096
#	103957
#	114846
#	127557
#	139826
#	153073
#	164802
#	176731
#
# Disc length: 2521 seconds
#
# Revision: 0
# Processed by: cddbd v1.5.1PL0 Copyright (c) Steve Scherf et al.
# Submitted via: dBpowerAMP V4.0
#
DISCID=c809d710
DTITLE=Hank Williams - Your Cheatin' Heart 
DYEAR=2005
DGENRE=Country
TTITLE0=Kaw Liga
TTITLE1=I'll Never Get Out of This World Alive
TTITLE2=Settin' The Woods on Fire
TTITLE3=Half as Much
TTITLE4=Baby, We're Really in Love
TTITLE5=Crazy Heart
TTITLE6=I Can't Help it (if I'm Still in Love With You)
TTITLE7=Cold, Cold Heart
TTITLE8=Moanin' The Blues
TTITLE9=Why Don't You Love Me
TTITLE10=I Just Don't Like This Kind of Livin'
TTITLE11=Lost Highway
TTITLE12=Mind Your Own Business
TTITLE13=Mansion on The Hill
TTITLE14=I'll be a Bachelor Till I Die
TTITLE15=Move it on Over
EXTD=Your Cheatin' Heart [CDs 1 and 2]\nHank Williams
EXTT0=
EXTT1=
EXTT2=
EXTT3=
EXTT4=
EXTT5=
EXTT6=
EXTT7=
EXTT8=
EXTT9=
EXTT10=
EXTT11=
EXTT12=
EXTT13=
EXTT14=
EXTT15=
PLAYORDER=
